<svg width="227" height="22" viewBox="0 0 227 22" fill="none" xmlns="http://www.w3.org/2000/svg">
<path fill-rule="evenodd" clip-rule="evenodd" d="M49.2605 0.47037L45.1273 8.74386H34.4845L38.6176 0.47037L32.2888 0.445068L22.1367 20.8631H28.4656L32.7408 12.2734H43.3837L39.1214 20.8631H45.4244L55.6281 0.47037H49.2605Z" fill="white"/>
<path fill-rule="evenodd" clip-rule="evenodd" d="M204.59 0.445068L202.821 4.02519H211.061L202.691 20.8631H208.814L217.17 4.02519H225.23L226.999 0.445068H204.59Z" fill="white"/>
<path fill-rule="evenodd" clip-rule="evenodd" d="M167.74 0.470337H161.347L151.221 20.8631H170.737L172.648 17.03H159.5L167.74 0.470337Z" fill="white"/>
<path fill-rule="evenodd" clip-rule="evenodd" d="M6.70288 16.8276C8.8082 12.5517 12.9284 4.12639 13.0834 4.02519C13.2126 3.93663 27.3944 4.11374 27.7044 4.02519C27.8207 3.98724 29.5514 0.48302 29.4739 0.445068L12.6055 0.47037C9.78982 0.660129 7.49076 2.2035 6.3154 4.72097C4.89463 7.60531 1.65269 13.9686 0.412751 16.5999C0.193177 17.0806 0.0769326 17.5234 -0.000563808 18.0547C-0.039312 19.2565 0.735652 20.2939 1.92393 20.6101C2.53099 20.7366 3.04763 20.7999 3.6676 20.8252C9.16985 20.8758 13.8196 20.8884 19.3348 20.8505C19.3348 20.8505 21.2593 17.1312 21.2205 17.03H6.83204C6.62538 17.03 6.61247 17.0174 6.70288 16.8276Z" fill="white"/>
<path fill-rule="evenodd" clip-rule="evenodd" d="M126.821 8.92096C127.364 8.16193 128.462 5.85952 129.069 4.20229C129.547 2.89927 128.72 1.2547 127.364 0.799275C126.679 0.571564 125.917 0.495661 125.207 0.445058C125.207 0.445058 101.222 0.356504 100.692 0.445058L84.25 17.0173L83.7721 0.48301L63.5456 0.470359C60.8978 0.571564 58.702 1.89988 57.4233 4.16434C55.6538 7.83301 54.1297 10.9198 52.2698 14.5505C51.6499 15.5499 51.2882 16.4734 51.0428 17.6119C50.8232 19.4716 52.3344 20.5089 53.9877 20.686L56.5709 20.8631H69.7582L71.6698 17.0173H57.5267L59.8903 12.2607H74.0334L75.7771 8.74385H61.634L63.9976 3.98723L78.1149 3.94927L78.3345 17.6372C78.3603 18.2698 78.4636 18.8011 78.6961 19.3957C78.9286 19.9776 80.1427 20.6734 81.1631 20.8252C83.6171 21.192 87.3499 20.4204 88.5769 19.3577L104.98 4.18964L96.7657 20.8631H102.965L111.322 4.03783H122.972L120.609 8.7565C119.885 8.84506 113.027 8.7565 113.027 8.7565C112.355 8.7818 111.787 8.94626 111.206 9.28783C109.617 10.4137 110.586 11.8686 111.387 12.9312L117.509 20.8631H124.161L117.664 12.2607C121.216 13.1336 124.742 11.8559 126.821 8.92096Z" fill="white"/>
<path fill-rule="evenodd" clip-rule="evenodd" d="M152.28 0.482988L138.408 0.470337C135.954 0.571542 133.914 1.7607 132.661 3.82275L126.319 16.5619C125.118 19.4462 127.456 20.648 129.935 20.8505H142.826C145.719 20.9011 148.212 19.5221 149.684 17.0679L156.052 4.20226C156.904 2.46913 154.954 0.672747 152.28 0.482988ZM143.497 17.03H132.325L138.796 4.02516H149.968L143.497 17.03Z" fill="white"/>
<path fill-rule="evenodd" clip-rule="evenodd" d="M216.562 16.3089C215.154 16.3089 213.953 17.3842 213.953 18.8517C213.953 20.3318 215.141 21.4071 216.562 21.4071C217.957 21.4071 219.158 20.3318 219.158 18.8517C219.145 17.3842 217.957 16.3089 216.562 16.3089ZM216.562 20.977C215.387 20.977 214.47 20.0788 214.47 18.8517C214.47 17.6499 215.387 16.739 216.562 16.739C217.725 16.739 218.642 17.6499 218.642 18.8517C218.642 20.0788 217.725 20.977 216.562 20.977Z" fill="white"/>
<path fill-rule="evenodd" clip-rule="evenodd" d="M217.738 18.2192C217.738 17.6372 217.39 17.3842 216.692 17.3842H215.568V20.3192H216.02V19.0414H216.537L217.312 20.3192H217.816L216.976 19.0288C217.402 18.9782 217.738 18.7505 217.738 18.2192ZM216.02 18.6746V17.7637H216.627C216.937 17.7637 217.273 17.827 217.273 18.1939C217.273 18.6493 216.937 18.6746 216.55 18.6746H216.02Z" fill="white"/>
<path fill-rule="evenodd" clip-rule="evenodd" d="M201.347 4.02519L203.117 0.445068L186.468 0.495671C183.82 0.596876 181.573 1.89989 180.281 4.16435L175.127 14.5505C174.572 15.5119 174.146 16.4734 173.9 17.6119C173.668 19.4969 175.205 20.5089 176.845 20.686L179.428 20.8631H192.616L194.527 17.0174H180.384L182.748 12.2607L196.891 12.286L198.635 8.75651H184.492L186.829 4.03784H201.347V4.02519Z" fill="white"/>
</svg>
