<svg width="148" height="33" viewBox="0 0 148 33" fill="none" xmlns="http://www.w3.org/2000/svg">
<path fill-rule="evenodd" clip-rule="evenodd" d="M0.117679 4.50541H2.07412C4.20341 4.50541 4.28984 7.14848 4.28984 8.25762V26.6883C4.28984 28.7335 2.58483 28.9066 1.73626 28.9066H0.03125V31.9744H14.9442V28.9066H13.412C11.1963 28.9066 10.2613 27.4592 10.2613 26.6883V19.5221C10.2613 18.1534 11.1099 17.8151 12.1392 17.9017C13.412 18.0039 14.3549 19.4356 14.3549 20.293H16.9085V10.822H14.3549C14.3549 13.6382 12.5635 13.7247 12.0527 13.7247C11.542 13.7247 10.5206 13.4651 10.2613 12.7886V6.97542C10.2613 4.75713 11.707 4.49754 12.8149 4.49754H133.43V0.580139H2.3334L0.117679 4.50541Z" fill="white"/>
<path fill-rule="evenodd" clip-rule="evenodd" d="M83.2699 8.25763C80.7949 8.25763 77.6441 10.0511 77.047 10.4759C76.5363 10.3029 75.6798 9.62636 75.6798 8.942H68.0977V11.4985C69.6298 11.4985 70.3134 12.6942 70.3134 13.119V27.5379C70.227 29.0718 69.1191 29.4179 68.0977 29.4179V31.9744H78.4927V29.4966C77.4713 29.4966 76.277 28.647 76.277 27.4513V14.4877C76.8741 13.6382 79.0899 11.8447 79.9384 11.9312C80.787 12.0177 81.0463 12.7021 81.0463 13.6382V20.8909H87.0099V11.4985C87.0177 9.53983 85.7449 8.25763 83.2699 8.25763Z" fill="white"/>
<path fill-rule="evenodd" clip-rule="evenodd" d="M147.032 11.4986V8.94202H136.637V11.4986C138.169 11.4986 138.852 12.6942 138.852 13.119V27.5379C138.766 29.0718 137.658 29.4179 136.637 29.4179V31.9745H147.032V29.4966C146.01 29.4966 144.816 28.647 144.816 27.4514V13.2921C144.816 12.2694 145.924 11.4986 147.032 11.4986Z" fill="white"/>
<path fill-rule="evenodd" clip-rule="evenodd" d="M60.264 8.25763C57.789 8.25763 54.6383 10.0511 54.0411 10.4759C53.5304 10.3029 52.674 9.62636 52.674 8.942H45.0918V11.4985C46.6239 11.4985 47.3075 12.6942 47.3075 13.119V27.5379C47.2211 29.0718 46.1132 29.4179 45.0918 29.4179V31.9744H55.4868V29.4966C54.4654 29.4966 53.2711 28.647 53.2711 27.4513V14.4877C53.8683 13.6382 56.084 11.8447 56.9326 11.9312C57.7811 12.0177 58.0404 12.7021 58.0404 13.6382V20.8909H64.004V11.4985C64.0119 9.53983 62.7312 8.25763 60.264 8.25763Z" fill="white"/>
<path fill-rule="evenodd" clip-rule="evenodd" d="M129.391 8.25763C126.916 8.25763 123.765 10.0511 123.168 10.4759C122.657 10.3029 121.801 9.62636 121.801 8.942H114.219V11.4985C115.751 11.4985 116.434 12.6942 116.434 13.119V27.5379C116.348 29.0718 115.24 29.4179 114.219 29.4179V31.9744H124.614V29.4966C123.592 29.4966 122.398 28.647 122.398 27.4513V14.4877C122.995 13.6382 125.211 11.8447 126.06 11.9312C126.908 12.0177 127.167 12.7021 127.167 13.6382V20.8909H133.131V11.4985C133.139 9.53983 131.858 8.25763 129.391 8.25763Z" fill="white"/>
<path fill-rule="evenodd" clip-rule="evenodd" d="M34.6264 24.8083V27.1131C34.6264 28.0492 34.4536 30.0157 31.6407 30.0157C28.8278 30.0157 27.9793 28.1357 27.9793 26.7748V21.9135C27.9793 21.4887 28.3171 20.8909 28.9143 20.8909H40.59V14.6608C40.59 11.8447 39.9929 10.9951 38.7986 9.79943C37.6043 8.60375 33.4322 8.2655 31.5543 8.2655C26.785 8.2655 25.245 8.94987 23.8857 10.059C22.5185 11.1682 22.0078 13.473 22.0078 15.18V24.824C22.0078 27.3805 22.5185 29.1741 24.1371 30.7945C25.7557 32.415 30.6979 32.415 31.7193 32.415C32.7407 32.415 36.1507 32.5015 38.6179 30.708C41.0929 28.9145 40.5743 24.824 40.5743 24.824H34.6264V24.8083ZM27.9793 14.2281C27.9793 12.8594 28.4036 10.8142 31.3893 10.8142C34.375 10.8142 34.6264 13.0325 34.6264 14.2281V17.296C34.6264 17.8073 34.2022 18.3186 33.605 18.3186H29.0007C28.49 18.3186 27.9793 17.8938 27.9793 17.3825V14.2281Z" fill="white"/>
<path fill-rule="evenodd" clip-rule="evenodd" d="M108.941 27.4513V14.6608C108.941 12.7021 108.854 10.649 106.811 9.20158C104.768 7.75419 101.445 7.83285 100.164 7.83285C98.8834 7.83285 94.6248 7.83285 92.6684 10.0511C90.7119 12.2694 91.0498 14.4012 91.0498 15.2586H96.6284C96.6284 15.2586 97.0134 12.356 97.7755 11.5929C98.5455 10.822 100.588 9.97248 102.168 11.3333C102.749 11.8368 102.977 12.4818 102.977 13.2134V16.8791C102.977 17.2173 102.639 17.7286 102.207 17.7286C102.207 17.7286 94.4519 17.9017 93.0926 18.9243C91.7255 19.9469 90.5391 20.6313 90.5391 24.3835C90.5391 28.1357 91.4741 29.591 92.5819 30.354C93.6898 31.1249 94.2005 31.9744 99.2291 31.9744H111.156V29.4966C110.135 29.5044 108.941 28.647 108.941 27.4513ZM102.969 28.9066C102.969 29.119 102.631 29.4179 102.372 29.4179H99.4334C97.3434 29.4179 96.7462 27.6244 96.7462 26.5152V23.2271C96.7462 20.0256 100.07 20.1121 101.39 20.1121C102.71 20.1121 102.969 21.2212 102.969 21.9449V28.9066Z" fill="white"/>
<path d="M141.437 4.4661C144.418 4.4661 146.835 3.55746 146.835 2.4366C146.835 1.31574 144.418 0.407104 141.437 0.407104C138.456 0.407104 136.039 1.31574 136.039 2.4366C136.039 3.55746 138.456 4.4661 141.437 4.4661Z" fill="white"/>
</svg>
