<svg width="184" height="22" viewBox="0 0 184 22" fill="none" xmlns="http://www.w3.org/2000/svg">
<path d="M162.121 8.64609H157.587V21.3942H162.121V13.3863H178.627V21.3942H183.161V8.69776H162.121V8.64609ZM86.6526 5.32668H102.836C105.29 4.62922 107.073 2.82098 107.589 0.780256H82.1191V13.425H103.159V16.7186H86.8722C84.4698 17.6356 82.7003 19.1985 82.2095 21.2134L82.132 21.4071H107.706V8.86567H86.6526V5.32668ZM126.641 16.5636V0.767338H122.094V21.3942H142.876V21.2134C145.136 20.2705 146.777 18.6302 147.254 16.7057L126.641 16.5636ZM161.54 5.32668H179.092C181.546 4.42256 183.355 2.73057 183.845 0.676926H156.786C157.264 2.73057 159.085 4.42256 161.54 5.32668ZM46.2514 5.32668H63.8042C66.2582 4.42256 68.0536 2.73057 68.5573 0.676926H41.4983C41.9891 2.73057 43.7973 4.42256 46.2514 5.32668ZM46.2514 21.3554H63.8042C66.2582 20.4513 68.0536 18.7335 68.5573 16.6928H41.4983C41.9891 18.7464 43.7973 20.4513 46.2514 21.3554ZM0.619141 0.831923C1.1487 2.85973 2.9311 4.55173 5.37223 5.45585H12.7602L13.1347 5.62376V21.3942H17.7458V5.61084L18.1591 5.44293H25.547C27.9623 4.53881 29.7705 2.84682 30.2872 0.819004V0.767338H0.632054V0.831923H0.619141ZM46.2514 13.4121H63.8042C66.2582 12.5209 68.0536 10.7902 68.5573 8.77526H41.4983C41.9891 10.8031 43.7973 12.5209 46.2514 13.4121Z" fill="white"/>
</svg>
