<svg width="140" height="28" viewBox="0 0 140 28" fill="none" xmlns="http://www.w3.org/2000/svg">
<path fill-rule="evenodd" clip-rule="evenodd" d="M83.1157 19.212C83.1157 20.5047 82.1757 21.212 80.9569 21.212H64.2286C63.0178 21.212 62.0778 20.5047 62.0778 19.212V9.23639H53.9766V21.8299C53.9766 24.5291 56.6372 27.4071 59.3137 27.4071H60.1103H85.0593H85.8559C88.5325 27.4071 91.1931 24.5291 91.1931 21.8299V9.23639H83.1077V19.212H83.1157Z" fill="white"/>
<path fill-rule="evenodd" clip-rule="evenodd" d="M19.4287 0.407104L23.2364 4.36645L0 27.4071H10.7061L15.0077 23.0575H41.1676L45.3337 27.4071H56.0398L30.3818 0.407104H19.4287ZM21.1255 16.8624L28.2708 9.62662L35.2171 16.8624H21.1255Z" fill="white"/>
<path fill-rule="evenodd" clip-rule="evenodd" d="M127.302 9.39898L120.157 3.12256H108.192L115.887 9.22825H99.2544C97.4063 9.22825 95.9884 9.47215 94.5784 10.8217C93.3597 11.9762 92.6348 13.6104 92.6348 15.3096V20.9112C92.6348 22.7161 92.9693 24.4234 94.3156 25.6998C95.622 26.9274 97.3346 27.399 99.0632 27.399H121.822C123.845 27.399 126.697 27.5047 128.314 26.0331C129.78 24.6917 130.17 22.6022 130.17 20.6835V15.9112C130.186 13.2201 129.341 11.1876 127.302 9.39898ZM119.751 21.212H102.449C100.609 21.212 99.358 20.277 99.358 18.3258C99.358 16.3502 100.601 15.4315 102.449 15.4315H119.751C121.599 15.4315 122.849 16.3421 122.849 18.3258C122.849 20.2852 121.583 21.212 119.751 21.212Z" fill="white"/>
<path d="M139.992 9.23639H131.906V27.4071H139.992V9.23639Z" fill="white"/>
</svg>
